<svg id="Layer_1" data-name="Layer 1" xmlns="http://www.w3.org/2000/svg" width="750" height="700" viewBox="0 0 750 700"><defs><style>.cls-1{fill:#fff;stroke:#959b9d;stroke-miterlimit:10;stroke-width:8px;}</style></defs><title>pilen-hvid</title><path class="cls-1" d="M342.72,136.19c113.72.79,207.72,92,205.87,210-1.74,111-91.35,202.85-207.31,202.4-112.82-.43-206.95-91.76-204.85-210.34C138.4,227.52,227.66,137.09,342.72,136.19ZM342.56,508c90.77.93,163.66-73.95,165.63-161.43,2.14-94.6-75.37-169.88-165.5-169.82-91.18.07-164,74.36-165.88,161.93C174.79,433.1,252.33,509.31,342.56,508Z"/><path class="cls-1" d="M463.79,318.65c-1,1-1.72,1.86-2.54,2.67q-57.09,57-114.13,114.12c-3.2,3.21-4.89,2.31-7.57-.39q-41.62-41.76-83.42-83.35c-10-10-19.95-20.09-30.09-30-2.38-2.32-2.86-3.64-.19-6.2,8.78-8.42,17.41-17,25.78-25.8,2.91-3.06,4.46-2.38,7.07.23,27,26.9,54.2,53.64,81.17,80.59,2.95,2.95,4.37,3,7.28,0,13.14-13.48,26.52-26.72,39.89-40,13.84-13.7,27.83-27.25,41.63-41,2.34-2.33,3.77-2.87,6.34-.2,8.67,9,17.61,17.72,26.43,26.57C462.23,316.76,462.92,317.66,463.79,318.65Z"/></svg>