<svg id="Layer_1" data-name="Layer 1" xmlns="http://www.w3.org/2000/svg" width="1914" height="386" viewBox="0 0 1914 386"><defs><style>.cls-1{fill:#18376d;}.cls-2{fill:#d39200;}.cls-3{fill:#936915;}</style></defs><title>start copy</title><rect class="cls-1" x="313" y="62" width="1274" height="273" rx="96.75"/><rect class="cls-2" x="341.77" y="81" width="1210.76" height="243" rx="90.15"/><path class="cls-3" d="M1552.52,165.9v48.95c0,49.79-28.31,90.15-63.24,90.15H405c-34.17,0-62-38.62-63.2-86.9v13.75c0,49.79,28.32,90.15,63.24,90.15H1489.32c34.93,0,63.25-40.36,63.25-90.15v-62.7C1552.57,168.06,1552.55,167,1552.52,165.9Z"/><path class="cls-1" d="M629,265.35q-17.13,0-26.23-8.27t-9.09-22.94V200.82q0-14.79,9-23.24t25.64-8.45q17,0,25.52,6.87t9.33,22.59l-22,1.17q-.71-8.56-3.34-11.5t-9.33-2.93q-7.64,0-10.27,3.52t-2.64,13.84v29.57q0,10,3,13.44t11.44,3.46q7.38,0,9.79-3.75t2.41-14.67h-13v-16.2h35v17.84q0,15.38-9.21,24.17T629,265.35Z"/><path class="cls-1" d="M730.31,264.18l-4.46-22.29H704.14l-4.58,22.29H679.5l21.82-93.87h29.57l21.6,93.87ZM716,161.27q-9.74,0-15.78-4.4t-6-13.55v-3.76q0-9.27,6-13.79T716,121.26q9.85,0,15.84,4.51t6,13.79v3.76q0,9.15-6.05,13.55T716,161.27Zm6.57,64.42-7.51-37.78-7.62,37.78ZM716,151.06a6.82,6.82,0,0,0,5-1.76c1.17-1.17,1.76-3.17,1.76-6v-3.76q0-4.11-1.76-6.1a6.39,6.39,0,0,0-5-2,6.32,6.32,0,0,0-5.1,2c-1.14,1.33-1.7,3.36-1.7,6.1v3.76c0,2.81.56,4.81,1.7,6A6.75,6.75,0,0,0,716,151.06Z"/><path class="cls-1" d="M871.23,264.18H841.66l-21.59-93.87h22.06l15.14,75.92,15.26-75.92h20.53Z"/><path class="cls-1" d="M907.84,264.18V248h19.6V186.5h-19.6V170.31H969V186.5h-19.6V248H969v16.19Z"/><path class="cls-1" d="M990.92,264.18V170.31h36.26q16.42,0,25.58,8.91t9.16,23.71V232q0,14.67-9.22,23.41t-25.52,8.74Zm22-16.19h11.85q9.15,0,12.2-3.82t3-14V204.81q0-10.34-3-14.32t-12.2-4h-11.85Z"/><path class="cls-1" d="M1083.74,264.18V170.31h60.67V186.5h-38.73V206h33.92v16.19h-33.92V248h38.73v16.19Z"/><path class="cls-1" d="M1188.76,264.18h-21.94V170.31h40.25q13.61,0,21,6.63t7.33,19.06v8.22q0,9.61-4.17,15.9A22.21,22.21,0,0,1,1219,229l19.59,35.2h-24.87l-18.66-33.56h-6.34Zm0-49.64h14.91q5,0,7.39-2.17c1.56-1.44,2.35-4.2,2.35-8.27v-7.27c0-4.23-.79-7-2.35-8.34s-4-2-7.39-2h-14.91Z"/><path class="cls-1" d="M1259.64,264.18V170.31h60.67V186.5h-38.73V206h33.91v16.19h-33.91V248h38.73v16.19Z"/></svg>