<svg id="Layer_1" data-name="Layer 1" xmlns="http://www.w3.org/2000/svg" width="888" height="386" viewBox="0 0 888 386"><defs><style>.cls-1{fill:#18376d;}.cls-2{fill:#d39200;}.cls-3{fill:#936915;}</style></defs><title>start</title><rect class="cls-1" x="59" y="62" width="777" height="273" rx="96.75"/><rect class="cls-2" x="76.57" y="79" width="738.43" height="243" rx="90.15"/><path class="cls-3" d="M729,316H162a86,86,0,0,1-85.47-76.56A90.15,90.15,0,0,0,166.44,323H724.56a90.15,90.15,0,0,0,89.91-83.55A86,86,0,0,1,729,316Z"/><path class="cls-1" d="M273.34,241.24a65.45,65.45,0,0,1-17.43-2.47,80.63,80.63,0,0,1-17.19-6.92l3.87-16.55a75.4,75.4,0,0,0,16.25,7.22A56.75,56.75,0,0,0,275.45,225q6.45,0,9.62-2.87a9.75,9.75,0,0,0,3.17-7.57,7.74,7.74,0,0,0-4.28-7.27q-4.29-2.36-16-4.93Q253.74,199,246.58,193t-7.16-17.72q0-13,8.92-21.53t25-8.51a61,61,0,0,1,17.13,2.46,54.93,54.93,0,0,1,14.43,6.34L302,169.78a80,80,0,0,0-14.49-6.17A46.32,46.32,0,0,0,274,161.44q-6,0-9.45,2.59c-2.3,1.72-3.46,4.26-3.46,7.62a7.89,7.89,0,0,0,3.93,7.28q3.93,2.34,16.49,5.28,14.9,3.75,21.71,10t6.8,17.84q0,13.14-9.44,21.18T273.34,241.24Z"/><path class="cls-1" d="M351.13,240.18V162.5h-24.4V146.31H397.6V162.5H373.08v77.68Z"/><path class="cls-1" d="M453.34,240.18l-4.46-22.29H427.17l-4.57,22.29H402.53l21.83-93.87h29.57l21.59,93.87Zm-7.74-38.49-7.51-37.78-7.63,37.78Z"/><path class="cls-1" d="M512.25,240.18H490.3V146.31h40.25q13.62,0,21,6.63T558.83,172v8.22q0,9.61-4.16,15.9A22.27,22.27,0,0,1,542.52,205l19.6,35.2H537.24l-18.66-33.56h-6.33Zm0-49.64h14.9c3.36,0,5.83-.72,7.39-2.17s2.35-4.2,2.35-8.27v-7.27c0-4.23-.78-7-2.35-8.34s-4-2-7.39-2h-14.9Z"/><path class="cls-1" d="M602.72,240.18V162.5H578.31V146.31h70.88V162.5H624.66v77.68Z"/></svg>