<svg id="Layout" xmlns="http://www.w3.org/2000/svg" width="80mm" height="80mm" viewBox="0 0 226.77 226.77"><defs><style>.cls-1{fill:#fff;}.cls-2,.cls-4{fill:#1a1a18;}.cls-2,.cls-3{stroke:#1a1a18;stroke-width:0.28px;}.cls-3{fill:none;}</style></defs><title>sv-logo</title><polygon class="cls-1" points="140.03 107.29 140.03 170.32 174.23 170.32 174.23 159.05 151.83 159.05 151.83 107.29 140.03 107.29"/><path class="cls-1" d="M113.21,49.75a20.11,20.11,0,0,0-8.8,1.75c-6.61,3.17-8.25,10.1-8.25,16.18V80.41h12.52V66.26c0-3.18,1.85-5.24,4.71-5.24a4.46,4.46,0,0,1,3.25,1.28,5.42,5.42,0,0,1,1.45,4V80.41h12.52V67.68C130.61,56.28,124.27,49.75,113.21,49.75Z"/><path class="cls-1" d="M96.16,107.29V154c0,7.76,2.7,13,7.87,15.66a20.18,20.18,0,0,0,9.18,1.91c11.22,0,17.4-6.24,17.4-17.57v-46.7H118.09V155.4a5.46,5.46,0,0,1-1.44,4,4.49,4.49,0,0,1-3.26,1.28c-2.86,0-4.71-2.06-4.71-5.24V107.29Z"/><polygon class="cls-1" points="77.24 107.29 77.24 147.49 76.64 147.49 64.98 108.46 53.72 108.46 53.72 171.49 63.22 171.49 63.22 131.3 63.83 131.3 75.48 170.32 86.75 170.32 86.75 107.29 77.24 107.29"/><rect class="cls-2" x="153" y="107.29" width="2.34" height="50.58"/><polygon class="cls-2" points="174.23 157.88 174.23 157.88 174.23 157.88 174.23 171.49 176.57 171.49 176.57 157.88 174.23 157.88"/><path class="cls-2" d="M111.55,62.66a3,3,0,0,0-1.19,1.23,5,5,0,0,0-.51,2.37V80.41h2.34V66.26c0-2,.83-3.42,2.37-3.89a4.28,4.28,0,0,0-1.17-.18A3.64,3.64,0,0,0,111.55,62.66Z"/><path class="cls-2" d="M115.55,48.57c-.4,0-.78,0-1.17,0,11.11.47,17.4,7.61,17.4,19.06V80.41h2.34V67.68C134.12,55.83,127.4,48.57,115.55,48.57Z"/><path class="cls-2" d="M113.39,159.47a3.78,3.78,0,0,0,1-.15l.13,0c-1.54-.47-2.37-1.88-2.37-3.89V107.29h-2.34V155.4C109.85,157.88,111.09,159.47,113.39,159.47Z"/><path class="cls-2" d="M131.78,107.29h0V154c0,5.65-1.55,10.34-4.64,13.61-2.9,3.07-7.17,4.87-12.79,5.09.4,0,.79,0,1.2,0,12.38,0,18.57-7.43,18.57-18.75V107.29Z"/><polygon class="cls-2" points="76.07 140.83 76.07 133.65 68.19 107.29 65.85 107.29 75.87 140.83 76.07 140.83"/><polygon class="cls-2" points="64.39 137.96 64.39 171.49 66.74 171.49 66.74 145.14 64.59 137.96 64.39 137.96"/><rect class="cls-2" x="87.92" y="107.29" width="2.34" height="64.2"/><rect class="cls-2" x="76.07" y="133.65" height="7.18"/><rect class="cls-2" x="64.39" y="137.96" height="33.54"/><polygon class="cls-3" points="153 157.88 153 107.29 151.83 107.29 151.83 159.05 174.23 159.05 174.23 157.88 153 157.88"/><polygon class="cls-3" points="140.03 170.32 140.03 107.29 138.85 107.29 138.85 107.29 138.85 171.49 138.85 171.49 174.23 171.49 174.23 170.32 140.03 170.32"/><path class="cls-3" d="M114.38,48.62c-.39,0-.77,0-1.17,0-6.1,0-10.52,1.8-13.48,4.91C96.5,56.85,95,61.78,95,67.68V80.41h1.17V67.68c0-6.08,1.64-13,8.25-16.18a20.11,20.11,0,0,1,8.8-1.75c11.06,0,17.4,6.53,17.4,17.93V80.41h1.17V67.68C131.78,56.23,125.49,49.09,114.38,48.62Z"/><path class="cls-3" d="M113.39,61c-2.86,0-4.71,2.06-4.71,5.24V80.41h1.17V66.26a5,5,0,0,1,.51-2.37,3,3,0,0,1,1.19-1.23,3.64,3.64,0,0,1,1.84-.47,4.28,4.28,0,0,1,1.17.18c1.53.47,2.36,1.88,2.36,3.89V80.41h1.17V66.26a5.42,5.42,0,0,0-1.45-4A4.46,4.46,0,0,0,113.39,61Z"/><path class="cls-3" d="M131.78,107.29h-1.17V154c0,11.33-6.18,17.57-17.4,17.57a20.18,20.18,0,0,1-9.18-1.91c-5.17-2.62-7.87-7.9-7.87-15.66v-46.7H95V154c0,11.67,5.84,18.74,18.22,18.74.39,0,.76,0,1.13,0h0c5.62-.22,9.89-2,12.79-5.09,3.09-3.27,4.64-8,4.64-13.61v-46.7Z"/><path class="cls-3" d="M113.39,160.64a4.49,4.49,0,0,0,3.26-1.28,5.46,5.46,0,0,0,1.44-4V107.29h-1.17V155.4c0,2-.83,3.42-2.36,3.89l-.13,0a3.78,3.78,0,0,1-1,.15h0c-2.3,0-3.54-1.59-3.54-4.07V107.29h-1.17V155.4C108.68,158.58,110.53,160.64,113.39,160.64Z"/><polygon class="cls-3" points="76.64 147.49 77.24 147.49 77.24 107.29 76.07 107.29 76.07 107.29 76.07 140.83 76.07 140.83 75.87 140.83 65.85 107.29 65.85 107.29 52.55 107.29 52.54 107.29 52.54 171.49 52.55 171.49 53.72 171.49 53.72 108.46 64.98 108.46 76.64 147.49"/><polygon class="cls-3" points="86.75 107.29 86.75 170.32 75.48 170.32 63.83 131.3 63.22 131.3 63.22 171.49 64.39 171.49 64.39 137.96 64.39 137.96 64.59 137.96 74.61 171.49 74.61 171.49 87.92 171.49 87.92 107.29 86.75 107.29"/><polygon class="cls-4" points="74.06 88.03 74.06 102.25 70.95 102.25 70.95 88.03 65.56 88.03 65.56 85.45 79.42 85.45 79.42 88.03 74.06 88.03"/><path class="cls-4" d="M88,99.79c2.14,0,3.59-1.47,3.59-4.19V85.45h3.11V95.62c0,4.38-2.92,6.91-6.7,6.91s-6.7-2.53-6.7-6.91V85.45h3.11V95.6c0,2.72,1.47,4.19,3.59,4.19"/><path class="cls-4" d="M98,85.45h4.84c3.75,0,5.71,1.75,5.71,4.44a3.74,3.74,0,0,1-2.35,3.5,4.22,4.22,0,0,1,3.39,4.08c0,3-2.31,4.79-6,4.79H98Zm4.65,7.11c1.75,0,2.86-.78,2.86-2.25S104.37,88,102.62,88H101v4.53Zm.81,7.12c1.77,0,3-.93,3-2.42s-1.2-2.4-3-2.4H101v4.82Z"/><path class="cls-4" d="M128.57,93.85A8.59,8.59,0,1,1,120,85.17a8.62,8.62,0,0,1,8.59,8.68m-14.07,0a5.49,5.49,0,1,0,5.48-5.8,5.57,5.57,0,0,0-5.48,5.8"/><path class="cls-4" d="M134.38,102.26h-3.11V85.45H136c3.71,0,6.36,1.91,6.36,5.2a4.7,4.7,0,0,1-3.29,4.61l5.22,7h-3.61l-4.82-6.5h-1.49Zm-.06-9H136c1.92,0,3.2-1,3.2-2.63S137.87,88,136,88h-1.63Z"/><path class="cls-4" d="M161.18,93.32c0,.3,0,.6,0,.9,0,5.25-3.69,8.31-8.13,8.31a8.68,8.68,0,0,1,0-17.36,8,8,0,0,1,7.09,4.15l-2.6,1.56a5.07,5.07,0,0,0-4.49-2.78,5.58,5.58,0,0,0-5.46,5.75,5.67,5.67,0,0,0,5.51,5.85A4.71,4.71,0,0,0,158,95.9h-4.65V93.32Z"/></svg>